--40007LOG 12:32:48:405972500 Waiting for file /home/seluser/videos/vid_chrome_or_firefox_40007* to be created...
Won't start video recording due to VIDEO env var false
ffmpeg version 2.8.17-0ubuntu0.1 Copyright (c) 2000-2020 the FFmpeg developers
  built with gcc 5.4.0 (Ubuntu 5.4.0-6ubuntu1~16.04.12) 20160609
  configuration: --prefix=/usr --extra-version=0ubuntu0.1 --build-suffix=-ffmpeg --toolchain=hardened --libdir=/usr/lib/x86_64-linux-gnu --incdir=/usr/include/x86_64-linux-gnu --cc=cc --cxx=g++ --enable-gpl --enable-shared --disable-stripping --disable-decoder=libopenjpeg --disable-decoder=libschroedinger --enable-avresample --enable-avisynth --enable-gnutls --enable-ladspa --enable-libass --enable-libbluray --enable-libbs2b --enable-libcaca --enable-libcdio --enable-libflite --enable-libfontconfig --enable-libfreetype --enable-libfribidi --enable-libgme --enable-libgsm --enable-libmodplug --enable-libmp3lame --enable-libopenjpeg --enable-libopus --enable-libpulse --enable-librtmp --enable-libschroedinger --enable-libshine --enable-libsnappy --enable-libsoxr --enable-libspeex --enable-libssh --enable-libtheora --enable-libtwolame --enable-libvorbis --enable-libvpx --enable-libwavpack --enable-libwebp --enable-libx265 --enable-libxvid --enable-libzvbi --enable-openal --enable-opengl --enable-x11grab --enable-libdc1394 --enable-libiec61883 --enable-libzmq --enable-frei0r --enable-libx264 --enable-libopencv
  libavutil      54. 31.100 / 54. 31.100
  libavcodec     56. 60.100 / 56. 60.100
  libavformat    56. 40.101 / 56. 40.101
  libavdevice    56.  4.100 / 56.  4.100
  libavfilter     5. 40.101 /  5. 40.101
  libavresample   2.  1.  0 /  2.  1.  0
  libswscale      3.  1.101 /  3.  1.101
  libswresample   1.  2.101 /  1.  2.101
  libpostproc    53.  3.100 / 53.  3.100
Input #0, x11grab, from ':85.0':
  Duration: N/A, start: 1603881172.535528, bitrate: N/A
    Stream #0:0: Video: rawvideo (BGR[0] / 0x524742), bgr0, 1366x768, 10 fps, 10 tbr, 1000k tbn, 10 tbc
[libx264 @ 0x1fcd320] using cpu capabilities: MMX2 SSE2Fast SSSE3 SSE4.2 AVX FMA3 AVX2 LZCNT BMI2
[libx264 @ 0x1fcd320] profile Constrained Baseline, level 3.2
[libx264 @ 0x1fcd320] 264 - core 148 r2643 5c65704 - H.264/MPEG-4 AVC codec - Copyleft 2003-2015 - http://www.videolan.org/x264.html - options: cabac=0 ref=1 deblock=0:0:0 analyse=0:0 me=dia subme=0 psy=1 psy_rd=1.00:0.00 mixed_ref=0 me_range=16 chroma_me=1 trellis=0 8x8dct=0 cqm=0 deadzone=21,11 fast_pskip=1 chroma_qp_offset=0 threads=3 lookahead_threads=1 sliced_threads=0 nr=0 decimate=1 interlaced=0 bluray_compat=0 constrained_intra=0 bframes=0 weightp=0 keyint=250 keyint_min=10 scenecut=0 intra_refresh=0 rc=crf mbtree=0 crf=23.0 qcomp=0.60 qpmin=0 qpmax=69 qpstep=4 ip_ratio=1.40 aq=0
Output #0, matroska, to '/home/seluser/videos/vid_chrome_or_firefox_40007.mkv':
  Metadata:
    encoder         : Lavf56.40.101
    Stream #0:0: Video: h264 (libx264) (H264 / 0x34363248), yuv420p, 1366x768, q=-1--1, 10 fps, 1k tbn, 10 tbc
    Metadata:
      encoder         : Lavc56.60.100 libx264
Stream mapping:
  Stream #0:0 -> #0:0 (rawvideo (native) -> h264 (libx264))
Press [q] to stop, [?] for help
[swscaler @ 0x1fd8ca0] Warning: data is not aligned! This can lead to a speedloss
frame=    3 fps=2.8 q=0.0 size=       1kB time=00:00:00.00 bitrate=N/A    
frame=    4 fps=1.7 q=0.0 size=       1kB time=00:00:00.00 bitrate=N/A    
frame=    5 fps=1.5 q=12.0 size=      19kB time=00:00:00.10 bitrate=1566.8kbits/s    
frame=    7 fps=1.3 q=10.0 size=      31kB time=00:00:00.30 bitrate= 841.5kbits/s    
frame=    9 fps=1.5 q=10.0 size=      37kB time=00:00:00.50 bitrate= 610.3kbits/s    
frame=   10 fps=1.5 q=10.0 size=      38kB time=00:00:00.60 bitrate= 520.5kbits/s    
frame=   12 fps=1.6 q=14.0 size=      43kB time=00:00:00.80 bitrate= 436.3kbits/s    
frame=   14 fps=1.7 q=12.0 size=      56kB time=00:00:01.00 bitrate= 455.2kbits/s    
frame=   18 fps=2.0 q=10.0 size=      61kB time=00:00:01.40 bitrate= 356.6kbits/s    
frame=   19 fps=2.0 q=10.0 size=      62kB time=00:00:01.50 bitrate= 337.1kbits/s    
frame=   21 fps=1.9 q=20.0 size=      63kB time=00:00:01.70 bitrate= 303.3kbits/s    
frame=   22 fps=1.9 q=18.0 size=      68kB time=00:00:01.80 bitrate= 311.7kbits/s    
frame=   23 fps=1.8 q=16.0 size=     124kB time=00:00:01.90 bitrate= 535.6kbits/s    
frame=   24 fps=1.7 q=14.0 size=     127kB time=00:00:02.00 bitrate= 518.8kbits/s    
frame=   27 fps=1.9 q=10.0 size=     162kB time=00:00:02.30 bitrate= 575.8kbits/s    
frame=   28 fps=1.8 q=10.0 size=     168kB time=00:00:02.40 bitrate= 573.0kbits/s    
frame=   30 fps=1.9 q=10.0 size=     177kB time=00:00:02.60 bitrate= 556.5kbits/s    
frame=   32 fps=1.9 q=9.0 size=     177kB time=00:00:02.80 bitrate= 519.0kbits/s    
frame=   36 fps=2.1 q=9.0 size=     184kB time=00:00:03.20 bitrate= 471.7kbits/s    
frame=   42 fps=2.4 q=9.0 size=     185kB time=00:00:03.80 bitrate= 398.7kbits/s    
frame=   44 fps=2.4 q=9.0 size=     185kB time=00:00:04.00 bitrate= 378.9kbits/s    
frame=   48 fps=2.5 q=9.0 size=     185kB time=00:00:04.40 bitrate= 344.8kbits/s    
frame=   54 fps=2.8 q=9.0 size=     185kB time=00:00:05.00 bitrate= 303.9kbits/s    
frame=   60 fps=3.0 q=9.0 size=     186kB time=00:00:05.60 bitrate= 271.6kbits/s    
frame=   65 fps=3.1 q=9.0 size=     186kB time=00:00:06.10 bitrate= 249.6kbits/s    
frame=   69 fps=3.2 q=9.0 size=     186kB time=00:00:06.50 bitrate= 234.4kbits/s    
frame=   75 fps=3.4 q=9.0 size=     186kB time=00:00:07.10 bitrate= 214.9kbits/s    
frame=   82 fps=3.7 q=9.0 size=     187kB time=00:00:07.80 bitrate= 195.9kbits/s    
frame=   88 fps=3.9 q=9.0 size=     187kB time=00:00:08.40 bitrate= 182.1kbits/s    
frame=   94 fps=4.0 q=9.0 size=     187kB time=00:00:09.00 bitrate= 170.2kbits/s    
frame=  100 fps=4.1 q=9.0 size=     187kB time=00:00:09.60 bitrate= 159.7kbits/s    
frame=  106 fps=4.3 q=9.0 size=     187kB time=00:00:10.20 bitrate= 150.5kbits/s    
frame=  111 fps=4.4 q=9.0 size=     188kB time=00:00:10.70 bitrate= 143.6kbits/s    
frame=  116 fps=4.5 q=9.0 size=     188kB time=00:00:11.20 bitrate= 137.4kbits/s    
frame=  124 fps=4.7 q=9.0 size=     188kB time=00:00:12.00 bitrate= 128.4kbits/s    
frame=  132 fps=4.9 q=9.0 size=     188kB time=00:00:12.80 bitrate= 120.5kbits/s    
frame=  136 fps=5.0 q=9.0 size=     188kB time=00:00:13.20 bitrate= 117.0kbits/s    
frame=  144 fps=5.2 q=9.0 size=     189kB time=00:00:14.00 bitrate= 110.5kbits/s    
frame=  150 fps=5.3 q=9.0 size=     189kB time=00:00:14.60 bitrate= 106.1kbits/s    
frame=  158 fps=5.5 q=9.0 size=     189kB time=00:00:15.40 bitrate= 100.7kbits/s    
frame=  162 fps=5.5 q=9.0 size=     189kB time=00:00:15.80 bitrate=  98.2kbits/s    
frame=  167 fps=5.6 q=9.0 size=     190kB time=00:00:16.30 bitrate=  95.3kbits/s    
frame=  173 fps=5.7 q=9.0 size=     190kB time=00:00:16.90 bitrate=  92.0kbits/s    
frame=  179 fps=5.7 q=9.0 size=     190kB time=00:00:17.50 bitrate=  88.9kbits/s    
frame=  184 fps=5.8 q=9.0 size=     190kB time=00:00:18.00 bitrate=  86.6kbits/s    
frame=  192 fps=6.0 q=9.0 size=     191kB time=00:00:18.80 bitrate=  83.0kbits/s    
frame=  200 fps=6.1 q=9.0 size=     191kB time=00:00:19.60 bitrate=  79.7kbits/s    
frame=  206 fps=6.2 q=9.0 size=     191kB time=00:00:20.20 bitrate=  77.4kbits/s    
frame=  212 fps=6.3 q=9.0 size=     191kB time=00:00:20.80 bitrate=  75.3kbits/s    
frame=  220 fps=6.4 q=9.0 size=     192kB time=00:00:21.60 bitrate=  72.7kbits/s    
frame=  228 fps=6.5 q=9.0 size=     192kB time=00:00:22.40 bitrate=  70.1kbits/s    
frame=  235 fps=6.6 q=9.0 size=     192kB time=00:00:23.10 bitrate=  68.1kbits/s    
frame=  241 fps=6.7 q=9.0 size=     192kB time=00:00:23.70 bitrate=  66.4kbits/s    
frame=  250 fps=6.8 q=9.0 size=     193kB time=00:00:24.60 bitrate=  64.1kbits/s    
frame=  255 fps=6.9 q=16.0 size=     321kB time=00:00:25.10 bitrate= 104.7kbits/s    
frame=  263 fps=7.0 q=9.0 size=     321kB time=00:00:25.90 bitrate= 101.6kbits/s    
frame=  276 fps=7.2 q=9.0 size=     322kB time=00:00:27.20 bitrate=  96.8kbits/s    
frame=  287 fps=7.4 q=9.0 size=     322kB time=00:00:28.30 bitrate=  93.1kbits/s    
frame=  293 fps=7.5 q=9.0 size=     322kB time=00:00:28.90 bitrate=  91.2kbits/s    
frame=  300 fps=7.5 q=9.0 size=     322kB time=00:00:29.60 bitrate=  89.1kbits/s    
frame=  306 fps=7.6 q=9.0 size=     322kB time=00:00:30.20 bitrate=  87.4kbits/s    
frame=  310 fps=7.6 q=9.0 size=     322kB time=00:00:30.60 bitrate=  86.3kbits/s    
frame=  318 fps=7.7 q=9.0 size=     323kB time=00:00:31.40 bitrate=  84.2kbits/s    
frame=  328 fps=7.8 q=9.0 size=     323kB time=00:00:32.40 bitrate=  81.6kbits/s    
frame=  336 fps=7.9 q=9.0 size=     323kB time=00:00:33.20 bitrate=  79.7kbits/s    
frame=  344 fps=8.0 q=9.0 size=     323kB time=00:00:34.00 bitrate=  77.9kbits/s    
frame=  351 fps=8.0 q=9.0 size=     323kB time=00:00:34.70 bitrate=  76.3kbits/s    
frame=  358 fps=8.1 q=9.0 size=     323kB time=00:00:35.40 bitrate=  74.9kbits/s    
frame=  364 fps=8.2 q=9.0 size=     324kB time=00:00:36.00 bitrate=  73.7kbits/s    
frame=  369 fps=8.2 q=9.0 size=     324kB time=00:00:36.50 bitrate=  72.7kbits/s    
frame=  377 fps=8.3 q=9.0 size=     324kB time=00:00:37.30 bitrate=  71.2kbits/s    
frame=  383 fps=8.3 q=9.0 size=     324kB time=00:00:37.90 bitrate=  70.1kbits/s    
frame=  393 fps=8.4 q=9.0 size=     324kB time=00:00:38.90 bitrate=  68.3kbits/s    
frame=  403 fps=8.5 q=9.0 size=     325kB time=00:00:39.90 bitrate=  66.7kbits/s    
frame=  412 fps=8.6 q=9.0 size=     325kB time=00:00:40.80 bitrate=  65.2kbits/s    
frame=  421 fps=8.7 q=9.0 size=     325kB time=00:00:41.70 bitrate=  63.9kbits/s    
frame=  429 fps=8.8 q=9.0 size=     325kB time=00:00:42.50 bitrate=  62.7kbits/s    
frame=  439 fps=8.9 q=9.0 size=     326kB time=00:00:43.50 bitrate=  61.3kbits/s    
frame=  451 fps=9.0 q=9.0 size=     326kB time=00:00:44.70 bitrate=  59.7kbits/s    
frame=  462 fps=9.1 q=9.0 size=     326kB time=00:00:45.80 bitrate=  58.3kbits/s    
frame=  470 fps=9.2 q=9.0 size=     326kB time=00:00:46.60 bitrate=  57.4kbits/s    
frame=  475 fps=9.2 q=9.0 size=     326kB time=00:00:47.10 bitrate=  56.8kbits/s    
frame=  478 fps=9.1 q=9.0 size=     327kB time=00:00:47.40 bitrate=  56.4kbits/s    
frame=  485 fps=9.1 q=9.0 size=     327kB time=00:00:48.10 bitrate=  55.6kbits/s    
frame=  489 fps=9.1 q=9.0 size=     327kB time=00:00:48.50 bitrate=  55.2kbits/s    
frame=  494 fps=9.1 q=9.0 size=     327kB time=00:00:49.00 bitrate=  54.7kbits/s    
frame=  499 fps=9.1 q=9.0 size=     327kB time=00:00:49.50 bitrate=  54.2kbits/s    
frame=  502 fps=9.1 q=9.0 size=     327kB time=00:00:49.80 bitrate=  53.8kbits/s    
frame=  505 fps=9.0 q=16.0 size=     456kB time=00:00:50.10 bitrate=  74.5kbits/s    
frame=  510 fps=9.0 q=10.0 size=     456kB time=00:00:50.60 bitrate=  73.8kbits/s    
frame=  515 fps=9.0 q=9.0 size=     456kB time=00:00:51.10 bitrate=  73.1kbits/s    
frame=  521 fps=9.0 q=9.0 size=     456kB time=00:00:51.70 bitrate=  72.3kbits/s    
frame=  529 fps=9.1 q=9.0 size=     456kB time=00:00:52.50 bitrate=  71.2kbits/s    
frame=  534 fps=9.1 q=9.0 size=     456kB time=00:00:53.00 bitrate=  70.6kbits/s    
frame=  542 fps=9.1 q=9.0 size=     457kB time=00:00:53.80 bitrate=  69.5kbits/s    
frame=  548 fps=9.1 q=9.0 size=     457kB time=00:00:54.40 bitrate=  68.8kbits/s    
frame=  554 fps=9.1 q=9.0 size=     457kB time=00:00:55.00 bitrate=  68.1kbits/s    
frame=  560 fps=9.2 q=9.0 size=     457kB time=00:00:55.60 bitrate=  67.4kbits/s    
frame=  565 fps=9.1 q=9.0 size=     457kB time=00:00:56.10 bitrate=  66.8kbits/s    
frame=  569 fps=9.1 q=9.0 size=     457kB time=00:00:56.50 bitrate=  66.3kbits/s    
frame=  572 fps=9.1 q=9.0 size=     458kB time=00:00:56.80 bitrate=  66.0kbits/s    
frame=  579 fps=9.1 q=9.0 size=     459kB time=00:00:57.50 bitrate=  65.4kbits/s    
frame=  591 fps=9.2 q=9.0 size=     460kB time=00:00:58.70 bitrate=  64.1kbits/s    
frame=  599 fps=9.3 q=9.0 size=     460kB time=00:00:59.50 bitrate=  63.3kbits/s    
frame=  609 fps=9.4 q=9.0 size=     460kB time=00:01:00.50 bitrate=  62.3kbits/s    
frame=  620 fps=9.5 q=9.0 size=     461kB time=00:01:01.60 bitrate=  61.2kbits/s    
frame=  632 fps=9.6 q=9.0 size=     461kB time=00:01:02.80 bitrate=  60.1kbits/s    
frame=  648 fps=9.7 q=9.0 size=     461kB time=00:01:04.40 bitrate=  58.7kbits/s    
frame=  659 fps=9.8 q=9.0 size=     461kB time=00:01:05.50 bitrate=  57.7kbits/s    
frame=  674 fps= 10 q=9.0 size=     462kB time=00:01:07.00 bitrate=  56.4kbits/s    
frame=  692 fps= 10 q=9.0 size=     462kB time=00:01:08.80 bitrate=  55.0kbits/s    
frame=  708 fps= 10 q=9.0 size=     462kB time=00:01:10.40 bitrate=  53.8kbits/s    
frame=  720 fps= 10 q=9.0 size=     463kB time=00:01:11.60 bitrate=  52.9kbits/s    
frame=  732 fps= 11 q=9.0 size=     464kB time=00:01:12.80 bitrate=  52.3kbits/s    
frame=  739 fps= 11 q=9.0 size=     464kB time=00:01:13.50 bitrate=  51.8kbits/s    
frame=  744 fps= 11 q=9.0 size=     465kB time=00:01:14.00 bitrate=  51.4kbits/s    
frame=  750 fps= 11 q=9.0 size=     465kB time=00:01:14.60 bitrate=  51.0kbits/s    
frame=  755 fps= 11 q=16.0 size=     594kB time=00:01:15.10 bitrate=  64.8kbits/s    
frame=  761 fps= 11 q=10.0 size=     595kB time=00:01:15.70 bitrate=  64.3kbits/s    
frame=  766 fps= 11 q=9.0 size=     595kB time=00:01:16.20 bitrate=  63.9kbits/s    
frame=  772 fps= 11 q=9.0 size=     595kB time=00:01:16.80 bitrate=  63.5kbits/s    
frame=  777 fps= 10 q=9.0 size=     595kB time=00:01:17.30 bitrate=  63.1kbits/s    
frame=  782 fps= 10 q=9.0 size=     595kB time=00:01:17.80 bitrate=  62.7kbits/s    
frame=  788 fps= 10 q=9.0 size=     595kB time=00:01:18.40 bitrate=  62.2kbits/s    
frame=  793 fps= 10 q=9.0 size=     596kB time=00:01:18.90 bitrate=  61.8kbits/s    
frame=  799 fps= 10 q=9.0 size=     596kB time=00:01:19.50 bitrate=  61.4kbits/s    
frame=  804 fps= 10 q=9.0 size=     596kB time=00:01:20.00 bitrate=  61.0kbits/s    
frame=  810 fps= 10 q=9.0 size=     596kB time=00:01:20.60 bitrate=  60.6kbits/s    
frame=  815 fps= 10 q=9.0 size=     596kB time=00:01:21.10 bitrate=  60.2kbits/s    
frame=  820 fps= 10 q=9.0 size=     596kB time=00:01:21.60 bitrate=  59.9kbits/s    
frame=  826 fps= 10 q=9.0 size=     597kB time=00:01:22.20 bitrate=  59.4kbits/s    
frame=  832 fps= 10 q=9.0 size=     597kB time=00:01:22.80 bitrate=  59.0kbits/s    
frame=  837 fps= 10 q=9.0 size=     597kB time=00:01:23.30 bitrate=  58.7kbits/s    
frame=  843 fps= 10 q=9.0 size=     597kB time=00:01:23.90 bitrate=  58.3kbits/s    
frame=  849 fps= 10 q=9.0 size=     597kB time=00:01:24.50 bitrate=  57.9kbits/s    
frame=  854 fps= 10 q=9.0 size=     597kB time=00:01:25.00 bitrate=  57.6kbits/s    
frame=  860 fps= 10 q=9.0 size=     597kB time=00:01:25.60 bitrate=  57.2kbits/s    
frame=  865 fps= 10 q=9.0 size=     598kB time=00:01:26.10 bitrate=  56.8kbits/s    
frame=  871 fps= 10 q=9.0 size=     598kB time=00:01:26.70 bitrate=  56.5kbits/s    
frame=  877 fps= 10 q=9.0 size=     598kB time=00:01:27.30 bitrate=  56.1kbits/s    
frame=  882 fps= 10 q=9.0 size=     598kB time=00:01:27.80 bitrate=  55.8kbits/s    
frame=  888 fps= 10 q=9.0 size=     598kB time=00:01:28.40 bitrate=  55.4kbits/s    
frame=  893 fps= 10 q=9.0 size=     598kB time=00:01:28.90 bitrate=  55.1kbits/s    
frame=  899 fps= 10 q=9.0 size=     599kB time=00:01:29.50 bitrate=  54.8kbits/s    
frame=  904 fps= 10 q=9.0 size=     599kB time=00:01:30.00 bitrate=  54.5kbits/s    
frame=  910 fps= 10 q=9.0 size=     599kB time=00:01:30.60 bitrate=  54.2kbits/s    
frame=  915 fps= 10 q=9.0 size=     599kB time=00:01:31.10 bitrate=  53.9kbits/s    
frame=  920 fps= 10 q=9.0 size=     599kB time=00:01:31.60 bitrate=  53.6kbits/s    
frame=  925 fps= 10 q=9.0 size=     599kB time=00:01:32.10 bitrate=  53.3kbits/s    
frame=  931 fps= 10 q=9.0 size=     599kB time=00:01:32.70 bitrate=  53.0kbits/s    
frame=  936 fps= 10 q=9.0 size=     600kB time=00:01:33.20 bitrate=  52.7kbits/s    
frame=  941 fps= 10 q=9.0 size=     600kB time=00:01:33.70 bitrate=  52.4kbits/s    
frame=  946 fps= 10 q=9.0 size=     600kB time=00:01:34.20 bitrate=  52.2kbits/s    
frame=  953 fps= 10 q=9.0 size=     600kB time=00:01:34.90 bitrate=  51.8kbits/s    
frame=  959 fps= 10 q=9.0 size=     600kB time=00:01:35.50 bitrate=  51.5kbits/s    
frame=  965 fps= 10 q=9.0 size=     600kB time=00:01:36.10 bitrate=  51.2kbits/s    
frame=  970 fps= 10 q=9.0 size=     601kB time=00:01:36.60 bitrate=  50.9kbits/s    
frame=  975 fps= 10 q=9.0 size=     601kB time=00:01:37.10 bitrate=  50.7kbits/s    
frame=  981 fps= 10 q=9.0 size=     601kB time=00:01:37.70 bitrate=  50.4kbits/s    
frame=  987 fps= 10 q=9.0 size=     601kB time=00:01:38.30 bitrate=  50.1kbits/s    
frame=  993 fps= 10 q=9.0 size=     601kB time=00:01:38.90 bitrate=  49.8kbits/s    
frame=  998 fps= 10 q=9.0 size=     601kB time=00:01:39.40 bitrate=  49.6kbits/s    
frame= 1004 fps= 10 q=18.0 size=     602kB time=00:01:40.00 bitrate=  49.3kbits/s    
frame= 1010 fps= 10 q=10.0 size=     730kB time=00:01:40.60 bitrate=  59.5kbits/s    
frame= 1015 fps= 10 q=9.0 size=     730kB time=00:01:41.10 bitrate=  59.2kbits/s    
frame= 1020 fps= 10 q=9.0 size=     731kB time=00:01:41.60 bitrate=  58.9kbits/s    
frame= 1025 fps= 10 q=9.0 size=     731kB time=00:01:42.10 bitrate=  58.6kbits/s    
frame= 1031 fps= 10 q=9.0 size=     731kB time=00:01:42.70 bitrate=  58.3kbits/s    
frame= 1035 fps= 10 q=9.0 size=     731kB time=00:01:43.10 bitrate=  58.1kbits/s    
frame= 1042 fps= 10 q=9.0 size=     731kB time=00:01:43.80 bitrate=  57.7kbits/s    
frame= 1047 fps= 10 q=9.0 size=     731kB time=00:01:44.30 bitrate=  57.4kbits/s    
frame= 1053 fps= 10 q=9.0 size=     731kB time=00:01:44.90 bitrate=  57.1kbits/s    
frame= 1058 fps= 10 q=9.0 size=     732kB time=00:01:45.40 bitrate=  56.9kbits/s    
frame= 1064 fps= 10 q=9.0 size=     732kB time=00:01:46.00 bitrate=  56.5kbits/s    
frame= 1070 fps= 10 q=9.0 size=     732kB time=00:01:46.60 bitrate=  56.2kbits/s    
frame= 1076 fps= 10 q=9.0 size=     732kB time=00:01:47.20 bitrate=  55.9kbits/s    
frame= 1081 fps= 10 q=9.0 size=     732kB time=00:01:47.70 bitrate=  55.7kbits/s    
frame= 1086 fps= 10 q=9.0 size=     732kB time=00:01:48.20 bitrate=  55.5kbits/s    
frame= 1091 fps= 10 q=9.0 size=     733kB time=00:01:48.70 bitrate=  55.2kbits/s    
frame= 1097 fps= 10 q=9.0 size=     733kB time=00:01:49.30 bitrate=  54.9kbits/s    
frame= 1103 fps= 10 q=9.0 size=     733kB time=00:01:49.90 bitrate=  54.6kbits/s    
frame= 1108 fps= 10 q=9.0 size=     733kB time=00:01:50.40 bitrate=  54.4kbits/s    
frame= 1114 fps= 10 q=9.0 size=     733kB time=00:01:51.00 bitrate=  54.1kbits/s    
frame= 1120 fps= 10 q=9.0 size=     733kB time=00:01:51.60 bitrate=  53.8kbits/s    
frame= 1125 fps= 10 q=9.0 size=     734kB time=00:01:52.10 bitrate=  53.6kbits/s    
frame= 1131 fps= 10 q=9.0 size=     734kB time=00:01:52.70 bitrate=  53.3kbits/s    
frame= 1136 fps= 10 q=9.0 size=     734kB time=00:01:53.20 bitrate=  53.1kbits/s    
frame= 1141 fps= 10 q=9.0 size=     734kB time=00:01:53.70 bitrate=  52.9kbits/s    
frame= 1147 fps= 10 q=9.0 size=     734kB time=00:01:54.30 bitrate=  52.6kbits/s    
frame= 1153 fps= 10 q=9.0 size=     734kB time=00:01:54.90 bitrate=  52.4kbits/s    
frame= 1158 fps= 10 q=9.0 size=     734kB time=00:01:55.40 bitrate=  52.1kbits/s    
frame= 1164 fps= 10 q=9.0 size=     735kB time=00:01:56.00 bitrate=  51.9kbits/s    
frame= 1170 fps= 10 q=9.0 size=     735kB time=00:01:56.60 bitrate=  51.6kbits/s    
frame= 1176 fps= 10 q=9.0 size=     735kB time=00:01:57.20 bitrate=  51.4kbits/s    
frame= 1181 fps= 10 q=9.0 size=     735kB time=00:01:57.70 bitrate=  51.2kbits/s    
frame= 1186 fps= 10 q=9.0 size=     735kB time=00:01:58.20 bitrate=  51.0kbits/s    
frame= 1191 fps= 10 q=9.0 size=     735kB time=00:01:58.70 bitrate=  50.8kbits/s    
frame= 1197 fps= 10 q=9.0 size=     736kB time=00:01:59.30 bitrate=  50.5kbits/s    
frame= 1202 fps= 10 q=9.0 size=     736kB time=00:01:59.80 bitrate=  50.3kbits/s    
frame= 1208 fps= 10 q=9.0 size=     736kB time=00:02:00.40 bitrate=  50.1kbits/s    
frame= 1214 fps= 10 q=9.0 size=     736kB time=00:02:01.00 bitrate=  49.8kbits/s    
frame= 1219 fps= 10 q=9.0 size=     736kB time=00:02:01.50 bitrate=  49.6kbits/s    
frame= 1224 fps= 10 q=9.0 size=     736kB time=00:02:02.00 bitrate=  49.4kbits/s    
frame= 1230 fps= 10 q=9.0 size=     737kB time=00:02:02.60 bitrate=  49.2kbits/s    
frame= 1235 fps= 10 q=9.0 size=     737kB time=00:02:03.10 bitrate=  49.0kbits/s    
frame= 1241 fps= 10 q=9.0 size=     737kB time=00:02:03.70 bitrate=  48.8kbits/s    
frame= 1246 fps= 10 q=9.0 size=     737kB time=00:02:04.20 bitrate=  48.6kbits/s    
frame= 1251 fps= 10 q=9.0 size=     737kB time=00:02:04.70 bitrate=  48.4kbits/s    
frame= 1256 fps= 10 q=14.0 size=     866kB time=00:02:05.20 bitrate=  56.6kbits/s    
frame= 1264 fps= 10 q=9.0 size=     866kB time=00:02:06.00 bitrate=  56.3kbits/s    
frame= 1269 fps= 10 q=9.0 size=     866kB time=00:02:06.50 bitrate=  56.1kbits/s    
frame= 1274 fps= 10 q=9.0 size=     866kB time=00:02:07.00 bitrate=  55.9kbits/s    
frame= 1279 fps= 10 q=9.0 size=     866kB time=00:02:07.50 bitrate=  55.7kbits/s    
frame= 1285 fps= 10 q=9.0 size=     867kB time=00:02:08.10 bitrate=  55.4kbits/s    
frame= 1291 fps= 10 q=9.0 size=     867kB time=00:02:08.70 bitrate=  55.2kbits/s    
frame= 1296 fps= 10 q=9.0 size=     867kB time=00:02:09.20 bitrate=  55.0kbits/s    
frame= 1302 fps= 10 q=9.0 size=     867kB time=00:02:09.80 bitrate=  54.7kbits/s    
frame= 1307 fps= 10 q=9.0 size=     867kB time=00:02:10.30 bitrate=  54.5kbits/s    
frame= 1312 fps= 10 q=9.0 size=     868kB time=00:02:10.80 bitrate=  54.3kbits/s    
frame= 1318 fps= 10 q=9.0 size=     872kB time=00:02:11.40 bitrate=  54.4kbits/s    
frame= 1324 fps= 10 q=9.0 size=     873kB time=00:02:12.00 bitrate=  54.2kbits/s    
--40007LOG 12:35:04:977856600 Trapped SIGTERM or SIGINT so shutting down ffmpeg gracefully...
--40007LOG 12:35:05:048499300 Will kill VID_TOOL_PID=1097 ...
frame= 1325 fps= 10 q=-1.0 Lsize=     873kB time=00:02:12.50 bitrate=  54.0kbits/s    
video:864kB audio:0kB subtitle:0kB other streams:0kB global headers:0kB muxing overhead: 1.048343%
[libx264 @ 0x1fcd320] frame I:6     Avg QP: 8.33  size:112607
[libx264 @ 0x1fcd320] frame P:1319  Avg QP: 9.18  size:   158
[libx264 @ 0x1fcd320] mb I  I16..4: 100.0%  0.0%  0.0%
[libx264 @ 0x1fcd320] mb P  I16..4:  0.2%  0.0%  0.0%  P16..4:  0.1%  0.0%  0.0%  0.0%  0.0%    skip:99.7%
[libx264 @ 0x1fcd320] coded y,uvDC,uvAC intra: 15.6% 13.9% 13.7% inter: 0.0% 0.1% 0.0%
[libx264 @ 0x1fcd320] i16 v,h,dc,p: 73% 25%  2%  0%
[libx264 @ 0x1fcd320] i8c dc,h,v,p: 72% 24%  4%  0%
[libx264 @ 0x1fcd320] kb/s:53.38
Exiting normally, received signal 2.
--40007LOG 12:35:06:118761900 Tried to kill -SIGTERM VID_TOOL_PID=1097
--40007LOG 12:35:06:153131600 Waiting up to 6s for VID_TOOL_PID=1097 to end with SIGTERM...
--40007LOG 12:35:06:241077400 wait_pid successfully managed to SIGTERM:VID_TOOL_PID=1097 within less than 6s
--40007LOG 12:35:06:266180500 Will try to fix the videos...
--40007LOG 12:35:06:830324500 Fixing perms for /home/seluser/videos/vid_chrome_or_firefox_40007.mkv*
--40007LOG 12:35:06:854463700 Changing video encoding from mkv to mp4...
--40007LOG 12:35:27:139185200 Conversion from mkv to mp4 FAILED! in within the 20s
--40007LOG 12:35:27:205222100 Optimizing /home/seluser/videos/vid_chrome_or_firefox_40007.mp4 for HTTP streaming...
Error opening file /home/seluser/videos/vid_chrome_or_firefox_40007.mp4: Invalid IsoMedia File
--40007LOG 12:35:27:334440200 MP4Box got errors meaning the mp4 video file is corrupted, trying again...
Error opening file /home/seluser/videos/vid_chrome_or_firefox_40007.mp4: Invalid IsoMedia File
--40007LOG 12:35:28:434844300 MP4Box got errors meaning the mp4 video file is corrupted, trying again...
Error opening file /home/seluser/videos/vid_chrome_or_firefox_40007.mp4: Invalid IsoMedia File
--40007LOG 12:35:29:498686900 MP4Box got errors meaning the mp4 video file is corrupted, trying again...
Error opening file /home/seluser/videos/vid_chrome_or_firefox_40007.mp4: Invalid IsoMedia File
--40007LOG 12:35:30:570461600 MP4Box got errors meaning the mp4 video file is corrupted, trying again...
Error opening file /home/seluser/videos/vid_chrome_or_firefox_40007.mp4: Invalid IsoMedia File
--40007LOG 12:35:31:655254000 MP4Box got errors meaning the mp4 video file is corrupted, trying again...
Error opening file /home/seluser/videos/vid_chrome_or_firefox_40007.mp4: Invalid IsoMedia File
--40007LOG 12:35:32:751565800 MP4Box got errors meaning the mp4 video file is corrupted, trying again...
Error opening file /home/seluser/videos/vid_chrome_or_firefox_40007.mp4: Invalid IsoMedia File
--40007LOG 12:35:33:825146000 MP4Box got errors meaning the mp4 video file is corrupted, trying again...
Error opening file /home/seluser/videos/vid_chrome_or_firefox_40007.mp4: Invalid IsoMedia File
--40007LOG 12:35:34:870777300 MP4Box got errors meaning the mp4 video file is corrupted, trying again...
--40007LOG 12:35:35:268878400 Failed! to mp4box_retry.sh within 8s
--40007LOG 12:35:35:289672800 ffmpeg shutdown complete.
